<?xml version="1.0" encoding="UTF-8" standalone="no"?>
<!-- Created with Vectornator (http://vectornator.io/) -->
<svg height="100%" stroke-miterlimit="10" style="fill-rule:nonzero;clip-rule:evenodd;stroke-linecap:round;stroke-linejoin:round;" version="1.1" viewBox="0 0 170 170" width="100%" xml:space="preserve" xmlns="http://www.w3.org/2000/svg">
<defs>
<linearGradient gradientTransform="matrix(1 0 0 1 0 0)" gradientUnits="userSpaceOnUse" id="LinearGradient" x1="57.8531" x2="39.1949" y1="44.1946" y2="179.386">
<stop offset="0.482903" stop-color="#69a749"/>
<stop offset="0.733959" stop-color="#69a749"/>
<stop offset="1" stop-color="#000000"/>
</linearGradient>
<linearGradient gradientTransform="matrix(1 0 0 1 0 0)" gradientUnits="userSpaceOnUse" id="LinearGradient_2" x1="85.2761" x2="85.1097" y1="9.79109" y2="199.024">
<stop offset="0.124636" stop-color="#92c967"/>
<stop offset="0.238342" stop-color="#80b856"/>
<stop offset="0.660754" stop-color="#4f7939"/>
<stop offset="1" stop-color="#000000"/>
</linearGradient>
</defs>
<g id="Слой-1">
<g opacity="1">
<path d="M131.031 5.5625C128.854 5.52019 126.391 6.10059 123.781 7.03125C120.907 7.57745 118.096 8.31936 114.562 8.71875C109.898 9.24601 105.149 10.1341 100.719 11.6875C105.895 13.0677 110.537 15.0583 115.156 17.5625C124.834 20.8737 132.115 25.1155 138.75 31.75C140.155 33.1553 141.084 34.5396 142.625 37.1562C142.769 37.4011 142.765 37.3854 142.906 37.625C143.517 38.6625 143.781 38.823 144.188 39.4063C144.772 39.7875 145.541 40.3007 145.656 40.375C146.69 41.0413 147.244 41.5608 148.094 42.1563C147.907 40.4371 147.775 38.6931 147.625 37.3438C147.382 35.1601 147.555 32.3994 146.688 30.375C145.661 27.9802 143.573 26.1648 142.938 23.625C142.752 22.8812 142.637 21.9986 142.5 21.1875C142.253 14.9631 140.679 10.1662 137.375 7.65625C136.558 7.03543 135.651 6.52684 134.688 6.1875C133.566 5.79259 132.333 5.58779 131.031 5.5625Z" fill="#76b654" opacity="1" stroke="none"/>
<path d="M27.9375 137.063C27.7285 143.564 29.0898 148.841 32.4063 152.25C33.4617 155.167 35.0705 157.627 37.5625 159.281C43.0744 162.941 51.4167 162.706 61.25 159.313C47.6073 153.339 40.2276 149.177 32.875 142.438C31.7889 141.442 29.6031 139.07 27.9375 137.063Z" fill="url(#LinearGradient)" opacity="1" stroke="none"/>
<path d="M85.4375 9.03125C73.6375 9.03125 63.1125 10.8625 53.8125 14.5625C44.5125 18.2625 36.5375 23.5125 29.9375 30.3125C23.3375 37.1125 18.3125 45.3375 14.8125 54.9375C11.3125 64.5375 9.5625 75.1187 9.5625 86.7188C9.5625 98.1187 11.2562 108.619 14.6562 118.219C18.0563 127.819 23 136.012 29.5 142.812C36 149.613 43.9437 154.919 53.3438 158.719C62.7437 162.519 73.4375 164.438 85.4375 164.438C96.8375 164.438 107.2 162.575 116.5 158.875C125.8 155.175 133.687 149.925 140.188 143.125C146.688 136.325 151.687 128.188 155.188 118.687C158.688 109.187 160.437 98.5188 160.438 86.7188C160.438 74.9188 158.688 64.225 155.188 54.625C151.687 45.025 146.688 36.8875 140.188 30.1875C133.688 23.4875 125.856 18.2625 116.656 14.5625C107.456 10.8625 97.0375 9.03125 85.4375 9.03125Z" fill="url(#LinearGradient_2)" opacity="1" stroke="none"/>
</g>
</g>
</svg>
