<?xml version="1.0" encoding="UTF-8" standalone="no"?>
<svg height="100%" stroke-miterlimit="10" style="fill-rule:nonzero;clip-rule:evenodd;stroke-linecap:round;stroke-linejoin:round;" version="1.1" viewBox="0 0 160 160" width="100%" xml:space="preserve" xmlns="http://www.w3.org/2000/svg" xmlns:xlink="http://www.w3.org/1999/xlink">
<defs/>
<g id="Слой-1">
<g opacity="1">
<path d="M126.031 0.563333C123.854 0.521023 121.391 1.10142 118.781 2.03208C115.907 2.57828 113.096 3.32019 109.562 3.71958C104.898 4.24684 100.149 5.13493 95.7188 6.68833C100.895 8.06853 105.537 10.0591 110.156 12.5633C119.834 15.8745 127.115 20.1163 133.75 26.7508C135.155 28.1561 136.084 29.5404 137.625 32.157C137.769 32.4019 137.765 32.3862 137.906 32.6258C138.517 33.6633 138.781 33.8238 139.188 34.4071C139.772 34.7883 140.541 35.3015 140.656 35.3758C141.69 36.0421 142.244 36.5616 143.094 37.1571C142.907 35.4379 142.775 33.6939 142.625 32.3446C142.382 30.1609 142.555 27.4002 141.688 25.3758C140.661 22.981 138.573 21.1656 137.938 18.6258C137.752 17.882 137.637 16.9994 137.5 16.1883C137.253 9.96393 135.679 5.16703 132.375 2.65708C131.558 2.03626 130.651 1.52767 129.688 1.18833C128.566 0.793423 127.333 0.588623 126.031 0.563333ZM22.9373 132.064C22.7283 138.565 24.0896 143.842 27.4061 147.251C28.4615 150.168 30.0703 152.628 32.5623 154.282C38.0742 157.942 46.4165 157.707 56.2498 154.314C42.6071 148.34 35.2274 144.178 27.8748 137.439C26.7887 136.443 24.6029 134.071 22.9373 132.064ZM80.4373 4.03208C68.6373 4.03208 58.1123 5.86333 48.8123 9.56333C39.5123 13.2633 31.5373 18.5133 24.9373 25.3133C18.3373 32.1133 13.3123 40.3383 9.81225 49.9383C6.31225 59.5383 4.56225 70.1195 4.56225 81.7196C4.56225 93.1195 6.25595 103.62 9.65595 113.22C13.0561 122.82 17.9998 131.013 24.4998 137.813C30.9998 144.614 38.9435 149.92 48.3436 153.72C57.7435 157.52 68.4373 159.439 80.4373 159.439C91.8373 159.439 102.2 157.576 111.5 153.876C120.8 150.176 128.687 144.926 135.188 138.126C141.688 131.326 146.687 123.189 150.188 113.688C153.688 104.188 155.437 93.5196 155.438 81.7196C155.438 69.9196 153.688 59.2258 150.188 49.6258C146.687 40.0258 141.688 31.8883 135.188 25.1883C128.688 18.4883 120.856 13.2633 111.656 9.56333C102.456 5.86333 92.0373 4.03208 80.4373 4.03208Z" fill="#000000" fill-rule="nonzero" opacity="1" stroke="none"/>
</g>
</g>
</svg>
