<svg stroke-miterlimit="10" style="fill-rule:nonzero;clip-rule:evenodd;stroke-linecap:round;stroke-linejoin:round;" version="1.1" viewBox="0 0 512 426.87" xml:space="preserve" xmlns="http://www.w3.org/2000/svg">
    <g id="Cat">
        <path d="M430.18 273.221C422.124 273.221 415.59 266.689 415.59 258.631C415.59 250.573 422.123 244.041 430.18 244.041C454.632 244.041 474.525 224.146 474.525 199.694C474.525 175.242 454.632 155.347 430.18 155.347C389.637 155.347 356.653 122.363 356.653 81.82C356.653 41.277 389.636 8.29301 430.18 8.29301C438.237 8.29301 444.77 14.825 444.77 22.883C444.77 30.94 438.238 37.473 430.18 37.473C405.726 37.473 385.833 57.368 385.833 81.82C385.833 106.272 405.725 126.167 430.18 126.167C470.721 126.167 503.706 159.151 503.706 199.693C503.706 240.237 470.721 273.221 430.18 273.221Z" fill="#484848" fill-rule="nonzero" opacity="1" stroke="none"/>
        <path d="M91.229 277.539C73.569 277.539 59.256 291.853 59.256 309.511L59.256 375.95L29.655 375.95C17.886 375.95 8.343 385.491 8.343 397.263L8.343 408.956C8.343 414.269 12.649 418.576 17.965 418.576L101.888 418.576C113.659 418.576 123.2 409.035 123.2 397.263L123.2 309.51C123.199 291.853 108.885 277.539 91.229 277.539Z" fill="#484848" fill-rule="nonzero" opacity="1" stroke="none"/>
        <path d="M354.795 175.69L78.74 175.69L78.74 316.227C78.74 369.091 121.594 411.945 174.457 411.945L354.795 411.945L354.795 411.264C419.849 411.264 472.583 358.529 472.583 293.477C472.583 228.424 419.848 175.69 354.795 175.69Z" fill="#808080" fill-rule="nonzero" opacity="1" stroke="none"/>
        <g opacity="1">
            <path d="M230.484 175.69L230.484 244.95C230.484 258.059 241.111 268.686 254.22 268.686C267.329 268.686 277.958 258.059 277.958 244.95L277.958 175.69L230.484 175.69Z" fill="#cccccc" fill-rule="nonzero" opacity="1" stroke="none"/>
            <path d="M313.063 175.69L313.063 244.95C313.063 258.059 323.69 268.686 336.798 268.686C349.909 268.686 360.536 258.059 360.536 244.95L360.536 175.69L313.063 175.69Z" fill="#cccccc" fill-rule="nonzero" opacity="1" stroke="none"/>
        </g>
        <g opacity="1">
            <path d="M366.465 255.27C321.371 255.27 284.811 291.828 284.811 336.923C284.811 351.059 288.405 364.355 294.727 375.95L286.118 375.95C274.348 375.95 264.805 385.491 264.805 397.263L264.805 408.956C264.805 414.269 269.111 418.576 274.427 418.576L366.466 418.576C411.561 418.576 448.12 382.019 448.12 336.922C448.119 291.828 411.56 255.27 366.465 255.27Z" fill="#808080" fill-rule="nonzero" opacity="1" stroke="none"/>
            <path d="M198.833 277.539C181.173 277.539 166.861 291.853 166.861 309.511L166.861 375.95L137.26 375.95C125.489 375.95 115.947 385.491 115.947 397.263L115.947 408.956C115.947 414.269 120.253 418.576 125.568 418.576L209.491 418.576C221.262 418.576 230.803 409.035 230.803 397.263L230.803 309.51C230.803 291.853 216.489 277.539 198.833 277.539Z" fill="#808080" fill-rule="nonzero" opacity="1" stroke="none"/>
        </g>
        <path d="M19.4375 15.4038C13.2885 15.4038 8.28125 20.3787 8.28125 26.5288L8.28125 160.904C8.28125 194.601 22.6557 227.021 45.5 250.372C66.0971 229.35 93.5685 215.67 123.938 215.435C154.985 215.194 183.209 229.024 204.281 250.529C227.216 227.166 241.656 194.677 241.656 160.904L241.656 79.935L241.656 26.5288C241.656 20.3788 236.681 15.4037 230.531 15.4038C227.6 15.4038 224.925 16.5195 222.938 18.3725L180.531 60.7788C164.63 50.1588 145.526 43.9662 124.969 43.9663C104.412 43.9663 85.3073 50.1587 69.4062 60.7788L27 18.3725C25.012 16.5215 22.3685 15.4037 19.4375 15.4038Z" fill="#808080" fill-rule="nonzero" opacity="1" stroke="none"/>
        <path d="M123.938 215.435C93.5685 215.67 66.0971 229.35 45.5 250.372C66.3417 271.677 94.2248 285.435 124.969 285.435C155.636 285.435 183.456 271.743 204.281 250.529C183.209 229.024 154.985 215.194 123.938 215.435Z" fill="#cccccc" fill-rule="nonzero" opacity="1" stroke="none"/>
        <path d="M148.066 158.388L101.88 158.388C87.839 158.388 76.456 169.772 76.456 183.814C76.456 197.856 87.839 209.239 101.88 209.239C112.138 209.239 120.953 203.153 124.974 194.407C128.995 203.153 137.81 209.239 148.067 209.239C162.108 209.239 173.493 197.856 173.493 183.814C173.493 169.772 162.108 158.388 148.066 158.388Z" fill="#484848" fill-rule="nonzero" opacity="1" stroke="none"/>
        <path d="M139.384 175.327C132.081 182.899 119.917 183.115 112.352 175.809L103.913 167.66C96.346 160.354 98.76 154.376 109.279 154.376L140.464 154.376C150.981 154.376 153.613 160.571 146.312 168.143L139.384 175.327Z" fill="#502020" fill-rule="nonzero" opacity="1" stroke="none"/>
        <path d="M124.974 43.969C116.793 43.969 108.849 44.973 101.237 46.823L101.237 79.584C101.237 92.693 111.864 103.32 124.974 103.32C138.084 103.32 148.71 92.693 148.71 79.584L148.71 46.823C141.097 44.973 133.155 43.969 124.974 43.969Z" fill="#484848" fill-rule="nonzero" opacity="1" stroke="none"/>
        <path d="M57.801 147.69C64.229 147.69 69.442 142.478 69.442 136.05C69.442 129.621 64.229 124.41 57.801 124.41C51.373 124.41 46.16 129.621 46.16 136.05C46.159 142.478 51.372 147.69 57.801 147.69ZM154.847 178.693C155.015 183.163 158.692 186.673 163.129 186.673C163.235 186.673 163.341 186.671 163.449 186.667L204.473 185.114C209.05 184.94 212.62 181.09 212.446 176.513C212.273 171.936 208.436 168.369 203.845 168.539L162.821 170.092C158.243 170.264 154.672 174.116 154.847 178.693ZM192.148 147.69C198.575 147.69 203.786 142.478 203.786 136.05C203.786 129.621 198.574 124.41 192.148 124.41C185.717 124.41 180.504 129.621 180.504 136.05C180.505 142.478 185.718 147.69 192.148 147.69ZM145.354 181.084L152.283 173.899C160.361 165.521 159.146 158.572 157.702 155.176C156.259 151.78 152.101 146.082 140.464 146.082L109.279 146.082C97.548 146.082 93.496 151.776 92.124 155.171C90.753 158.566 89.712 165.478 98.152 173.626L106.591 181.775C111.713 186.72 118.471 189.444 125.623 189.444C133.147 189.444 140.155 186.475 145.354 181.084ZM110.686 162.67L140.068 162.67L133.414 169.569C131.369 171.688 128.602 172.856 125.622 172.856C122.792 172.856 120.125 171.786 118.113 169.843L110.686 162.67ZM196.054 209.055L162.577 188.956C158.651 186.598 153.555 187.87 151.198 191.798C148.839 195.725 150.112 200.82 154.039 203.177L187.517 223.276C188.853 224.079 190.325 224.46 191.779 224.46C194.596 224.46 197.342 223.025 198.896 220.434C201.254 216.507 199.982 211.413 196.054 209.055ZM86.819 186.673C91.255 186.673 94.933 183.163 95.101 178.693C95.275 174.116 91.705 170.264 87.128 170.092L46.104 168.539C45.996 168.536 45.891 168.533 45.784 168.533C41.348 168.533 37.67 172.043 37.502 176.513C37.328 181.09 40.898 184.942 45.475 185.114L86.499 186.667C86.607 186.671 86.713 186.673 86.819 186.673ZM512 199.694C512 154.578 475.296 117.874 430.18 117.874C410.3 117.874 394.127 101.701 394.127 81.821C394.127 61.941 410.3 45.768 430.18 45.768C442.798 45.768 453.064 35.502 453.064 22.884C453.064 10.266 442.798 0 430.18 0C385.064 0 348.359 36.705 348.359 81.821C348.359 126.937 385.064 163.642 430.18 163.642C450.058 163.642 466.231 179.815 466.231 199.695C466.231 207.905 463.491 215.65 458.544 221.925C435.771 189.008 397.761 167.397 354.794 167.397L249.78 167.397C249.892 165.228 249.95 163.06 249.95 160.891L249.95 79.931C249.95 79.854 249.949 79.775 249.947 79.699L249.947 26.537C249.947 15.824 241.233 7.11 230.521 7.11C225.59 7.11 220.889 8.959 217.283 12.318C217.211 12.385 217.14 12.454 217.071 12.524L179.328 50.268C162.846 40.701 144.194 35.675 124.975 35.675C105.754 35.675 87.102 40.701 70.621 50.268L32.875 12.524C32.805 12.454 32.735 12.386 32.663 12.318C29.057 8.959 24.356 7.11 19.427 7.11C8.714 7.11 0 15.826 0 26.537L0 160.889C0 194.128 13.249 227.674 36.349 252.926C45.488 262.915 55.695 271.196 66.651 277.632C56.904 285.137 50.962 296.805 50.962 309.511L50.962 367.656L29.655 367.656C13.329 367.656 0.0480003 380.937 0.0480003 397.263L0.0480003 408.956C0.0480003 418.834 8.085 426.87 17.964 426.87L101.887 426.87C106.631 426.87 111.218 425.75 115.341 423.643C118.244 425.671 121.767 426.87 125.568 426.87L209.491 426.87C216.554 426.87 223.044 424.381 228.138 420.238L260.527 420.238C263.815 424.28 268.822 426.87 274.427 426.87L366.466 426.87C399.79 426.87 428.916 408.641 444.457 381.645L444.694 381.877C468.028 358.152 480.878 326.757 480.878 293.475C480.878 284.09 479.838 274.942 477.883 266.136C499.352 250.75 512 226.342 512 199.694ZM48.588 241.73C28.251 219.499 16.588 190.034 16.588 160.89L16.588 26.537C16.588 24.971 17.861 23.698 19.426 23.698C20.29 23.698 20.903 24.06 21.283 24.39L63.547 66.654C66.346 69.452 70.728 69.882 74.02 67.687C89.127 57.596 106.747 52.262 124.975 52.262C143.201 52.262 160.821 57.596 175.93 67.686C179.218 69.883 183.602 69.453 186.401 66.653L228.665 24.39C229.044 24.059 229.658 23.698 230.524 23.698C232.089 23.698 233.362 24.971 233.362 26.537L233.362 79.928C233.362 80.005 233.363 80.084 233.365 80.16L233.365 160.888C233.365 190.032 221.7 219.498 201.363 241.728C180.472 264.564 153.344 277.14 124.976 277.14C96.606 277.142 69.478 264.566 48.588 241.73ZM107.653 397.263L107.653 408.931C105.879 409.809 103.917 410.282 101.887 410.282L17.964 410.282C17.232 410.282 16.636 409.687 16.636 408.956L16.636 397.263C16.636 390.085 22.476 384.244 29.655 384.244L59.257 384.244C63.839 384.244 67.551 380.53 67.551 375.95L67.551 309.511C67.551 305.451 68.588 301.572 70.446 298.164L70.446 316.226C70.446 347.344 83.963 376.134 107.685 395.969C107.666 396.398 107.653 396.828 107.653 397.263ZM113.815 379.214C96.684 362.789 87.034 340.335 87.034 316.226L87.034 287.154C99.199 291.477 111.961 293.73 124.975 293.73C139.177 293.73 153.081 291.052 166.232 285.921C161.417 292.555 158.568 300.705 158.568 309.51L158.568 367.655L137.26 367.655C127.724 367.656 119.232 372.192 113.815 379.214ZM222.509 397.263C222.509 404.442 216.669 410.282 209.491 410.282L125.568 410.282C124.836 410.282 124.241 409.687 124.241 408.956L124.241 397.263C124.241 390.085 130.081 384.244 137.26 384.244L166.861 384.244C171.443 384.244 175.155 380.53 175.155 375.95L175.155 309.511C175.155 296.455 185.777 285.833 198.833 285.833C211.888 285.833 222.508 296.455 222.508 309.511L222.508 397.264L222.509 397.264L222.509 397.263ZM366.465 410.282L274.426 410.282C273.694 410.282 273.098 409.687 273.098 408.956L273.098 397.263C273.098 390.085 278.938 384.244 286.117 384.244L294.726 384.244C297.653 384.244 300.364 382.701 301.858 380.184C303.351 377.667 303.408 374.55 302.008 371.98C296.182 361.296 293.104 349.174 293.104 336.923C293.104 296.473 326.013 263.564 366.464 263.564C406.915 263.564 439.824 296.472 439.824 336.923C439.825 377.373 406.915 410.282 366.465 410.282ZM456.352 334.528C455.075 286.037 415.259 246.977 366.465 246.977C316.867 246.977 276.517 287.327 276.517 336.924C276.517 347.525 278.4 358.053 282.023 367.939C267.628 369.938 256.511 382.327 256.511 397.263L256.511 403.65L238.396 403.65C238.85 401.592 239.098 399.455 239.098 397.263L239.098 309.51C239.098 287.308 221.036 269.244 198.835 269.244C197.742 269.244 196.663 269.3 195.592 269.386C201.949 264.564 207.979 259.072 213.602 252.925C231.339 233.536 243.259 209.257 247.843 183.982L354.797 183.982C415.173 183.982 464.291 233.1 464.291 293.474C464.289 307.763 461.557 321.648 456.352 334.528ZM472.793 249.067C471.215 244.887 469.421 240.811 467.425 236.854C477.274 227.028 482.821 213.834 482.821 199.694C482.821 170.668 459.206 147.053 430.182 147.053C394.213 147.053 364.949 117.79 364.949 81.82C364.949 45.85 394.212 16.587 430.182 16.587C433.654 16.587 436.478 19.411 436.478 22.883C436.478 26.354 433.654 29.179 430.182 29.179C401.155 29.179 377.541 52.794 377.541 81.82C377.541 110.846 401.156 134.461 430.182 134.461C466.15 134.461 495.414 163.723 495.414 199.693C495.412 218.96 487.115 236.763 472.793 249.067ZM87.37 188.956L53.893 209.055C49.965 211.413 48.693 216.507 51.052 220.434C52.607 223.025 55.354 224.46 58.17 224.46C59.623 224.46 61.096 224.078 62.432 223.276L95.909 203.177C99.837 200.819 101.109 195.725 98.75 191.798C96.391 187.87 91.294 186.599 87.37 188.956Z" fill="#282c34" fill-rule="nonzero" opacity="1" stroke="none"/>
    </g>
</svg>
