<svg width="37" height="36" viewBox="0 0 37 36" xmlns="http://www.w3.org/2000/svg">
<g clip-path="url(#clip0_61_7831)">
<path d="M15.5239 27.1572C13.6203 27.1572 12.0652 26.5677 10.8587 25.3886C9.67899 24.1834 9.08913 22.5197 9.08913 20.3974C9.08913 19.9782 9.12935 19.4935 9.20978 18.9432C9.31703 18.393 9.42427 17.8166 9.53152 17.214C9.74601 15.9825 10.1214 14.8559 10.6576 13.8341C11.2207 12.8122 11.8909 11.9345 12.6685 11.2009C13.4728 10.4672 14.371 9.89083 15.363 9.47162C16.3551 9.0524 17.4141 8.8428 18.5402 8.8428C19.6663 8.8428 20.6583 9.0262 21.5163 9.39301C22.3743 9.73362 23.0714 10.2969 23.6076 11.083L23.9696 9.1572H27.5891L25.4576 20.9869C25.4308 21.1441 25.404 21.2882 25.3772 21.4192C25.3504 21.5502 25.337 21.6943 25.337 21.8515C25.337 22.4279 25.5246 22.8996 25.9 23.2664C26.3022 23.607 26.8518 23.7773 27.5489 23.7773C28.2728 23.7773 28.9699 23.607 29.6402 23.2664C30.3373 22.9258 30.954 22.4279 31.4902 21.7729C32.0264 21.0917 32.4554 20.2664 32.7772 19.2969C33.1257 18.3275 33.3 17.2271 33.3 15.9956C33.3 14.2402 32.9515 12.6026 32.2543 11.083C31.5572 9.53712 30.5652 8.20087 29.2783 7.07424C27.9913 5.9214 26.4362 5.01747 24.613 4.36245C22.7899 3.70742 20.7522 3.37991 18.5 3.37991C16.4355 3.37991 14.4917 3.75982 12.6685 4.51965C10.8721 5.25327 9.30362 6.27511 7.96304 7.58515C6.62246 8.8952 5.56341 10.441 4.78587 12.2227C4.00833 14.0044 3.61956 15.9301 3.61956 18C3.61956 20.0437 4.00833 21.9563 4.78587 23.738C5.56341 25.5197 6.62246 27.0655 7.96304 28.3755C9.30362 29.7118 10.8721 30.7467 12.6685 31.4804C14.4917 32.2402 16.4355 32.6201 18.5 32.6201C20.35 32.6201 22.0391 32.476 23.5674 32.1878C25.0956 31.8996 26.4899 31.5066 27.75 31.0087V34.5852C26.758 34.9782 25.4308 35.3057 23.7685 35.5677C22.1062 35.8559 20.35 36 18.5 36C15.9261 36 13.513 35.5284 11.2609 34.5852C9.03551 33.6419 7.07826 32.3581 5.38913 30.7336C3.72681 29.1092 2.41304 27.2096 1.44783 25.0349C0.482609 22.8341 0 20.4891 0 18C0 15.5109 0.482609 13.179 1.44783 11.0044C2.41304 8.80349 3.72681 6.89083 5.38913 5.26638C7.07826 3.64192 9.03551 2.35808 11.2609 1.41485C13.513 0.471615 15.9261 0 18.5 0C21.2616 0 23.7819 0.432314 26.0609 1.29694C28.3399 2.13537 30.2837 3.28821 31.8924 4.75546C33.5279 6.19651 34.788 7.88646 35.6728 9.82533C36.5576 11.7642 37 13.821 37 15.9956C37 17.8035 36.7587 19.4017 36.2761 20.7904C35.7935 22.179 35.1232 23.345 34.2652 24.2882C33.4341 25.2314 32.4286 25.952 31.2489 26.4498C30.096 26.9214 28.8359 27.1572 27.4685 27.1572C26.0206 27.1572 24.8409 26.8821 23.9293 26.3319C23.0178 25.7817 22.3743 25.048 21.9989 24.131C21.2214 25.1004 20.283 25.8472 19.1837 26.3712C18.0844 26.8952 16.8645 27.1572 15.5239 27.1572ZM16.6902 23.738C18.1112 23.738 19.3043 23.2795 20.2696 22.3624C21.2348 21.4454 21.8649 20.2533 22.1598 18.786C22.2938 18.1048 22.4011 17.4891 22.4815 16.9389C22.5888 16.3886 22.6424 15.9694 22.6424 15.6812C22.6424 14.6332 22.2804 13.7948 21.5565 13.1659C20.8326 12.5371 19.8674 12.2227 18.6609 12.2227C17.2935 12.2227 16.1272 12.6812 15.162 13.5983C14.2235 14.5153 13.6069 15.7205 13.312 17.214C13.1511 17.9738 13.0304 18.6157 12.95 19.1397C12.8964 19.6376 12.8696 20.0306 12.8696 20.3188C12.8696 21.3144 13.1779 22.1397 13.7946 22.7948C14.438 23.4236 15.4033 23.738 16.6902 23.738Z" />
</g>
<defs>
<clipPath id="clip0_61_7831">
<rect width="37" height="36" fill="white"/>
</clipPath>
</defs>
</svg>
