<svg height="100%" stroke-miterlimit="10" version="1.1" viewBox="0 0 256 256" width="100%" xml:space="preserve" xmlns="http://www.w3.org/2000/svg">
    <g id="Email">
        <path d="M150.647 124.985C150.647 116.933 148.836 110.291 145.213 105.057C141.589 99.8239 135.953 97.2072 128.305 97.2072C119.045 97.2072 111.698 100.83 106.264 108.077C100.829 115.323 98.1116 124.18 98.1116 134.646C98.1116 137.867 98.4135 141.088 99.0174 144.308C99.6212 147.529 100.678 150.397 102.188 152.913C103.697 155.429 105.811 157.492 108.528 159.103C111.246 160.713 114.718 161.518 118.945 161.518C125.185 161.518 130.368 160.411 134.494 158.197C138.62 155.983 141.891 153.114 144.307 149.592C146.722 146.069 148.383 142.144 149.289 137.817C150.194 133.489 150.647 129.212 150.647 124.985ZM178.727 133.137C178.123 135.955 177.519 139.276 176.915 143.1C176.311 146.925 176.009 150.246 176.009 153.064C176.009 155.278 176.563 157.241 177.67 158.952C178.777 160.663 180.941 161.518 184.161 161.518C187.382 161.518 190.552 160.663 193.672 158.952C196.792 157.241 199.56 154.523 201.975 150.8C204.391 147.076 206.353 142.396 207.863 136.76C209.373 131.124 210.127 124.381 210.127 116.531C210.127 104.453 208.165 93.8356 204.24 84.6771C200.315 75.5186 194.88 67.8194 187.936 61.5795C180.991 55.3396 172.688 50.6597 163.026 47.5398C153.365 44.4199 142.797 42.8599 131.324 42.8599C118.844 42.8599 107.471 44.9734 97.2058 49.2004C86.9402 53.4274 78.1339 59.3654 70.787 67.0142C63.44 74.6631 57.7537 83.721 53.728 94.1879C49.7022 104.655 47.6894 116.027 47.6894 128.306C47.6894 141.591 49.9035 153.467 54.3318 163.934C58.7601 174.4 64.9497 183.257 72.9005 190.503C80.8513 197.75 90.2614 203.335 101.131 207.26C112 211.186 123.776 213.148 136.457 213.148C147.93 213.148 158.447 211.538 168.008 208.317C177.569 205.097 186.074 200.568 193.521 194.73L226.733 194.73C215.864 209.626 202.328 220.948 186.124 228.697C169.92 236.447 152.56 240.322 134.041 240.322C117.938 240.322 102.791 237.554 88.6008 232.019C74.4101 226.483 61.9807 218.784 51.3125 208.921C40.6444 199.058 32.2407 187.232 26.1014 173.444C19.9622 159.656 16.8926 144.61 16.8926 128.306C16.8926 112.203 19.9119 97.3078 25.9505 83.6204C31.9891 69.9329 40.2418 58.057 50.7087 47.9927C61.1756 37.9284 73.4037 30.0279 87.3931 24.2912C101.382 18.5546 116.328 15.6863 132.23 15.6863C145.514 15.6863 158.548 17.8501 171.329 22.1777C184.111 26.5054 195.534 32.8962 205.598 41.3502C215.663 49.8043 223.765 60.2208 229.904 72.5999C236.043 84.979 239.113 99.1194 239.113 115.021C239.113 125.689 237.855 134.948 235.338 142.799C232.822 150.649 229.602 157.291 225.677 162.726C221.752 168.161 217.323 172.589 212.392 176.011C207.46 179.433 202.529 182.049 197.597 183.861C192.666 185.672 187.936 186.931 183.407 187.635C178.878 188.34 175.104 188.692 172.084 188.692C163.63 188.692 157.592 186.981 153.969 183.559C150.345 180.137 148.433 176.413 148.232 172.388L147.628 172.388C143.602 176.413 138.57 180.137 132.532 183.559C126.493 186.981 118.643 188.692 108.981 188.692C102.54 188.692 96.6523 187.434 91.3182 184.918C85.9841 182.402 81.4048 178.929 77.5804 174.501C73.7559 170.073 70.787 164.739 68.6735 158.499C66.56 152.259 65.5032 145.415 65.5032 137.968C65.5032 129.111 66.9122 120.607 69.7302 112.455C72.5482 104.303 76.5236 97.0562 81.6564 90.7157C86.7892 84.3752 93.0794 79.343 100.527 75.6192C107.975 71.8954 116.429 70.0335 125.889 70.0335C133.941 70.0335 140.633 71.3419 145.967 73.9586C151.301 76.5753 155.478 81.0036 158.497 87.2435L159.101 87.2435L161.517 73.6567L189.898 73.6567L178.727 133.137Z" fill-rule="evenodd" opacity="1" stroke="none" />
    </g>
</svg>