<svg stroke-miterlimit="10" style="fill-rule:nonzero;clip-rule:evenodd;stroke-linecap:round;stroke-linejoin:round;" version="1.1" viewBox="0 0 124.52 110.69" xml:space="preserve" xmlns="http://www.w3.org/2000/svg">
    <g id="Page-1">
        <path d="M5.84375 0C2.63337 0 6.35783e-07 2.67616 0 5.9375L0 85C0 88.2613 2.63337 90.9375 5.84375 90.9375L50.5938 90.9375C50.5938 92.6364 49.7318 99.914 46.25 106.75L40.8438 106.75L40.8438 108.281C40.8438 109.613 41.9396 110.688 43.25 110.688L81.2812 110.688C82.5917 110.688 83.6562 109.613 83.6562 108.281L83.6562 106.75L78.2812 106.75C74.7995 99.914 73.9375 92.6364 73.9375 90.9375L118.688 90.9375C121.898 90.9375 124.531 88.2613 124.531 85L124.531 5.9375C124.531 2.67616 121.898-3.17891e-07 118.688 0L5.84375 0ZM8.25 5.6875L116.25 5.6875C117.904 5.6875 119.25 7.0335 119.25 8.6875L119.25 64.6875C119.25 66.3415 117.904 67.6875 116.25 67.6875L8.25 67.6875C6.59597 67.6875 5.25 66.3415 5.25 64.6875L5.25 8.6875C5.25 7.0335 6.59597 5.6875 8.25 5.6875Z" fill="#ffcf48" opacity="1" stroke="none"/>
        <path d="M77.6037 106.829L46.9163 106.829C50.3833 99.9811 51.2603 92.6556 51.2603 90.9217L73.2607 90.9217C73.2607 92.6556 74.1377 99.9831 77.6037 106.829L77.6037 106.829Z" fill="#ffffff" opacity="1" stroke="none"/>
        <path d="M83.2603 107.346L83.2603 108.043C83.2603 109.057 82.6103 109.882 81.8113 109.882L42.7087 109.882C41.9097 109.882 41.2597 109.057 41.2597 108.043L41.2597 107.346L83.2603 107.346Z" fill="#ffffff" opacity="1" stroke="none"/>
        <path d="M5.8125 0.78125C2.84786 0.722933 0.895806 3.33438 0.9375 5.90625L0.9375 72L123.594 72L123.594 5.59375C123.564 2.72242 120.882 0.666171 118.688 0.78125L5.8125 0.78125ZM8.25 4.6875L116.25 4.6875C118.459 4.6875 120.25 6.4785 120.25 8.6875L120.25 64.6875C120.25 66.8965 118.459 68.6875 116.25 68.6875L8.25 68.6875C6.04097 68.6875 4.25 66.8965 4.25 64.6875L4.25 8.6875C4.25 6.4785 6.04097 4.6875 8.25 4.6875Z" fill="#ffffff" opacity="1" stroke="none"/>
    </g>
</svg>