<svg stroke-miterlimit="10" version="1.1" viewBox="0 0 256 256" xml:space="preserve" xmlns="http://www.w3.org/2000/svg">
    <g id="LinkedIn">
        <path d="M46.3361 17.8883C31.7214 17.8909 19.8857 29.7414 19.8883 44.3813C19.8909 59.0213 31.7591 70.9146 46.3738 70.9119C53.392 70.9107 60.1208 68.0943 65.0825 63.1222C70.0442 58.15 72.8228 51.4118 72.8216 44.3813C72.819 29.7414 60.9509 17.8856 46.3361 17.8883ZM185.375 87.3573C167.707 86.7004 151.136 95.8148 142.21 111.103L141.571 111.103L141.571 91.0077L97.8043 91.0077L97.8043 238.112L143.412 238.112L143.412 165.332C143.412 146.141 147.049 127.548 170.799 127.548C194.211 127.548 194.505 149.515 194.505 166.573L194.505 238.112L240.112 238.112L240.112 157.428C240.112 117.812 231.593 87.3573 185.375 87.3573ZM23.4948 91.0077L23.4948 238.112L69.1398 238.112L69.1398 91.0077L23.4948 91.0077Z" fill-rule="evenodd" opacity="1" stroke="none"/>
    </g>
</svg>
