<svg height="100%" stroke-miterlimit="10" style="fill-rule:nonzero;clip-rule:evenodd;stroke-linecap:round;stroke-linejoin:round;" version="1.1" viewBox="0 0 1082.75 235.866" width="100%" xml:space="preserve" xmlns="http://www.w3.org/2000/svg">
    <g id="Слой-1">
        <path d="M93.9 113.7C92.9 106.5 90.3 101.45 86.1 98.55C81.9 95.65 75.3 94.2 66.3 94.2C58.9 94.2 53.2 95.15 49.2 97.05C45.2 98.95 43.2 102.1 43.2 106.5C43.2 110.9 45.2 114.25 49.2 116.55C53.2 118.85 59.2 121.1 67.2 123.3C75.6 125.7 83.6 127.85 91.2 129.75C98.8 131.65 105.5 133.7 111.3 135.9C119.1 139.1 125.1 143.45 129.3 148.95C133.5 154.45 135.6 162 135.6 171.6C135.6 187 130.15 199 119.25 207.6C108.35 216.2 92.3 220.5 71.1 220.5C48.3 220.5 30.85 215.7 18.75 206.1C6.65 196.5 0.4 184.2 0 169.2L40.2 169.2C40.2 176.2 42.9 181.6 48.3 185.4C53.7 189.2 61.2 191.1 70.8 191.1C77.8 191.1 83.9 189.95 89.1 187.65C94.3 185.35 96.9 181.4 96.9 175.8C96.9 170.6 94.55 166.9 89.85 164.7C85.15 162.5 79.6 160.6 73.2 159C60.8 156 50.8 153.3 43.2 150.9C35.6 148.5 29.2 145.6 24 142.2C17 137.8 12.15 132.8 9.45 127.2C6.75 121.6 5.4 115.5 5.4 108.9C5.4 102.7 6.5 96.9 8.7 91.5C10.9 86.1 14.5 81.45 19.5 77.55C24.5 73.65 30.95 70.6 38.85 68.4C46.75 66.2 56.3 65.1 67.5 65.1C88.9 65.1 104.65 69.2 114.75 77.4C124.85 85.6 130.4 97.7 131.4 113.7L93.9 113.7Z" fill="#ffcf48" fill-rule="evenodd" opacity="1" stroke="none"/>
        <path d="M219.3 220.5C207.3 220.5 196.6 218.6 187.2 214.8C177.8 211 169.85 205.7 163.35 198.9C156.85 192.1 151.9 183.9 148.5 174.3C145.1 164.7 143.4 154.2 143.4 142.8C143.4 131.2 145.15 120.6 148.65 111C152.15 101.4 157.2 93.2 163.8 86.4C170.4 79.6 178.35 74.35 187.65 70.65C196.95 66.95 207.5 65.1 219.3 65.1C230.9 65.1 241.3 66.95 250.5 70.65C259.7 74.35 267.55 79.55 274.05 86.25C280.55 92.95 285.55 101.1 289.05 110.7C292.55 120.3 294.3 131 294.3 142.8C294.3 154.6 292.55 165.25 289.05 174.75C285.55 184.25 280.55 192.4 274.05 199.2C267.55 206 259.65 211.25 250.35 214.95C241.05 218.65 230.7 220.5 219.3 220.5ZM219.3 187.8C243.1 187.8 255 172.8 255 142.8C255 113 243.1 98.1 219.3 98.1C195.5 98.1 183.6 113 183.6 142.8C183.6 172.8 195.5 187.8 219.3 187.8Z" fill="#78b856" fill-rule="evenodd" opacity="1" stroke="none"/>
        <path d="M308.4 216.6L308.4 15L347.4 15L347.4 216.6L308.4 216.6Z" fill="#ffcf48" fill-rule="evenodd" opacity="1" stroke="none"/>
        <path d="M453.6 144.3C451.6 146.3 448.7 147.9 444.9 149.1C441.1 150.3 435.6 151.6 428.4 153C417.2 155.2 409.5 158 405.3 161.4C401.1 164.8 399 169.7 399 176.1C399 187.1 405.3 192.6 417.9 192.6C422.9 192.6 427.55 191.75 431.85 190.05C436.15 188.35 439.85 186.05 442.95 183.15C446.05 180.25 448.55 176.85 450.45 172.95C452.35 169.05 453.3 164.9 453.3 160.5L453.6 144.3ZM456.3 216.6C455.1 212.8 454.3 208.4 453.9 203.4C449.3 208.6 443.2 212.75 435.6 215.85C428 218.95 419.2 220.5 409.2 220.5C392.2 220.5 379.75 216.75 371.85 209.25C363.95 201.75 360 192 360 180C360 169.4 361.7 160.95 365.1 154.65C368.5 148.35 373.2 143.4 379.2 139.8C385.2 136.2 392.35 133.55 400.65 131.85C408.95 130.15 418 128.6 427.8 127.2C437.6 125.8 444.2 123.95 447.6 121.65C451 119.35 452.7 115.6 452.7 110.4C452.7 105.6 450.45 101.85 445.95 99.15C441.45 96.45 435.4 95.1 427.8 95.1C418.8 95.1 412.35 97.1 408.45 101.1C404.55 105.1 402.1 110.4 401.1 117L364.8 117C365 109.4 366.25 102.4 368.55 96C370.85 89.6 374.55 84.1 379.65 79.5C384.75 74.9 391.4 71.35 399.6 68.85C407.8 66.35 417.8 65.1 429.6 65.1C441.2 65.1 451.05 66.4 459.15 69C467.25 71.6 473.75 75.35 478.65 80.25C483.55 85.15 487.1 91.25 489.3 98.55C491.5 105.85 492.6 114.1 492.6 123.3L492.6 216.6L456.3 216.6Z" fill="#ffcf48" fill-rule="evenodd" opacity="1" stroke="none"/>
        <path d="M509.7 216.6L509.7 69L546.3 69L546.3 86.7C549.5 81.7 552.85 77.8 556.35 75C559.85 72.2 563.45 70.05 567.15 68.55C570.85 67.05 574.6 66.1 578.4 65.7C582.2 65.3 586.1 65.1 590.1 65.1L595.2 65.1L595.2 105C591.6 104.4 588 104.1 584.4 104.1C560.6 104.1 548.7 116 548.7 139.8L548.7 216.6L509.7 216.6Z" fill="#ffcf48" fill-rule="evenodd" opacity="1" stroke="none"/>
        <path d="M606 216.6L606 15L645 15L645 216.6L606 216.6Z" fill="#78b856" fill-rule="evenodd" opacity="1" stroke="none"/>
        <path d="M662.4 216.6L662.4 69L701.4 69L701.4 216.6L662.4 216.6ZM662.4 51.3L662.4 15L701.4 15L701.4 51.3L662.4 51.3Z" fill="#78b856" fill-rule="evenodd" opacity="1" stroke="none"/>
        <path d="M892.2 216.6L892.2 127.2C892.2 118.2 890.1 110.9 885.9 105.3C881.7 99.7 876.1 96.9 869.1 96.9C861.9 96.9 855.95 99.9 851.25 105.9C846.55 111.9 844.2 119.4 844.2 128.4L844.2 216.6L805.2 216.6L805.2 127.8C805.2 121.8 804.8 116.9 804 113.1C803.2 109.3 801.85 106.3 799.95 104.1C798.05 101.9 795.6 100.35 792.6 99.45C789.6 98.55 786 98.1 781.8 98.1C766 98.1 758.1 107.7 758.1 126.9L758.1 216.6L719.1 216.6L719.1 69L755.7 69L755.7 90.6C760.7 80.8 766.7 74.1 773.7 70.5C780.7 66.9 789.1 65.1 798.9 65.1C803.9 65.1 808.35 65.5 812.25 66.3C816.15 67.1 819.65 68.45 822.75 70.35C825.85 72.25 828.8 74.7 831.6 77.7C834.4 80.7 837.2 84.3 840 88.5C844 80.3 849.3 74.35 855.9 70.65C862.5 66.95 870.5 65.1 879.9 65.1C887.3 65.1 894.1 66.35 900.3 68.85C906.5 71.35 911.8 74.85 916.2 79.35C920.6 83.85 924.05 89.1 926.55 95.1C929.05 101.1 930.3 107.5 930.3 114.3L930.3 216.6L892.2 216.6Z" fill="#78b856" fill-rule="evenodd" opacity="1" stroke="none"/>
        <path d="M1042.5 128.4C1042.3 123 1041.35 118.25 1039.65 114.15C1037.95 110.05 1035.7 106.65 1032.9 103.95C1030.1 101.25 1026.9 99.25 1023.3 97.95C1019.7 96.65 1016 96 1012.2 96C1004.4 96 997.65 98.85 991.95 104.55C986.25 110.25 983 118.2 982.2 128.4L1042.5 128.4ZM981 153C981.6 164.2 984.85 173.1 990.75 179.7C996.65 186.3 1004.4 189.6 1014 189.6C1020.4 189.6 1026.05 188.15 1030.95 185.25C1035.85 182.35 1039 178.3 1040.4 173.1L1080.6 173.1C1076 188.3 1068 200 1056.6 208.2C1045.2 216.4 1031.6 220.5 1015.8 220.5C966.6 220.5 942 193.7 942 140.1C942 128.7 943.6 118.4 946.8 109.2C950 100 954.65 92.1 960.75 85.5C966.85 78.9 974.3 73.85 983.1 70.35C991.9 66.85 1002 65.1 1013.4 65.1C1036.2 65.1 1053.45 72.4 1065.15 87C1076.85 101.6 1082.7 123.6 1082.7 153L981 153Z" fill="#78b856" fill-rule="evenodd" opacity="1" stroke="none"/>
        <path d="M268.522 62.2715C259.551 59.1122 244.504 68.0433 228.299 84.8651C231.022 85.4854 233.414 85.9526 239.047 86.9517C247.996 88.5392 252.262 89.3971 257.858 90.8945C263.041 92.2814 268.502 94.1975 274.035 96.3966C277.89 80.532 277.391 68.4161 271.234 63.739C270.417 63.1182 269.486 62.6108 268.522 62.2715ZM191.225 193.944C189.125 193.57 187.116 193.321 182.468 192.782C173.061 191.69 168.789 191.054 162.691 189.528C162.445 189.467 162.214 189.388 161.97 189.324C160.751 199.296 162.874 206.861 168.865 210.466C177.826 215.857 193.39 211.228 210.473 199.643C207.942 198.767 205.848 198.05 204.123 197.48C198.669 195.677 194.614 194.548 191.225 193.944Z" fill="#78b856" fill-rule="evenodd" opacity="1" stroke="none"/>
        <path d="M165.489 193.954C163.828 203.862 165.593 211.497 171.417 215.364C180.129 221.148 195.901 217.228 213.482 206.414C210.993 205.426 208.907 204.622 207.209 203.976C201.841 201.932 197.863 200.629 194.504 199.876C192.423 199.408 190.435 199.046 185.816 198.3C176.467 196.791 172.222 195.969 166.198 194.173C165.955 194.101 165.73 194.028 165.489 193.954Z" fill="#78b856" fill-rule="evenodd" opacity="1" stroke="none"/>
        <path d="M229.745 69.8036C235.411 66.9219 241.998 65.5032 248.405 64.7791C257.626 63.7369 263.504 59.6349 271.768 65.8335C275.899 68.9311 275.646 75.1489 276.786 79.7106C277.421 82.2504 279.523 84.0584 280.55 86.4532C281.417 88.4777 281.248 91.2474 281.49 93.431C281.812 96.3224 282.021 100.904 282.902 103.545C283.172 104.355 283.529 105.396 283.529 106.289" fill="#78b856" fill-rule="evenodd" opacity="1" stroke="none"/>
    </g>
</svg>
