<?xml version="1.0" encoding="UTF-8" standalone="no"?>
<!DOCTYPE svg PUBLIC "-//W3C//DTD SVG 1.1//EN" "http://www.w3.org/Graphics/SVG/1.1/DTD/svg11.dtd">
<!-- Created with Vectornator (http://vectornator.io/) -->
<svg height="100%" stroke-miterlimit="10" style="fill-rule:nonzero;clip-rule:evenodd;stroke-linecap:round;stroke-linejoin:round;" version="1.1" viewBox="0 0 380.446 380.446" width="100%" xml:space="preserve" xmlns="http://www.w3.org/2000/svg" xmlns:xlink="http://www.w3.org/1999/xlink">
<defs/>
<g id="Untitled">
<g opacity="1">
<path d="M207.086 346.911C189.631 347.037 172.825 344.294 157.114 339.126C218.763 317.855 262.846 259.106 262.348 190.284C261.849 121.462 216.922 63.3581 154.97 42.9814C170.605 37.5865 187.369 34.6005 204.824 34.4742C291.102 33.8496 361.549 103.285 362.174 189.563C362.798 275.84 293.363 346.286 207.086 346.911Z" fill="#f7cf52" fill-rule="evenodd" opacity="1" stroke="none"/>
<path d="M207.08 346.909C202.317 346.943 197.601 346.763 192.951 346.378C272.518 338.625 334.431 271.258 333.841 189.766C333.25 108.259 270.344 41.7881 190.649 35.2117C195.31 34.7591 200.039 34.5113 204.819 34.4767C291.098 33.8521 361.549 103.282 362.174 189.562C362.798 275.841 293.359 346.284 207.08 346.909Z" fill="#e2bc50" fill-rule="evenodd" opacity="1" stroke="none"/>
</g>
</g>
</svg>
