<?xml version="1.0" encoding="UTF-8" standalone="no"?>
<!DOCTYPE svg PUBLIC "-//W3C//DTD SVG 1.1//EN" "http://www.w3.org/Graphics/SVG/1.1/DTD/svg11.dtd">
<!-- Created with Vectornator (http://vectornator.io/) -->
<svg height="100%" stroke-miterlimit="10" style="fill-rule:nonzero;clip-rule:evenodd;stroke-linecap:round;stroke-linejoin:round;" version="1.1" viewBox="0 0 380.446 380.446" width="100%" xml:space="preserve" xmlns="http://www.w3.org/2000/svg" xmlns:xlink="http://www.w3.org/1999/xlink">
<defs/>
<g id="Untitled">
<g opacity="1">
<path d="M33.998 190.223C33.998 103.942 103.942 33.998 190.223 33.998C276.504 33.998 346.448 103.942 346.448 190.223C346.448 276.504 276.504 346.448 190.223 346.448C103.942 346.448 33.998 276.504 33.998 190.223Z" fill="#282c34" fill-rule="nonzero" opacity="1" stroke="none"/>
<path d="M191.356 346.916C173.901 347.042 157.095 344.299 141.384 339.131C203.033 317.859 247.116 259.109 246.618 190.286C246.119 121.463 201.192 63.3585 139.24 42.9815C154.875 37.5865 171.639 34.6005 189.094 34.4742C275.372 33.8496 345.819 103.286 346.444 189.565C347.068 275.844 277.633 346.291 191.356 346.916Z" fill="#f7cf52" fill-rule="evenodd" opacity="1" stroke="none"/>
<path d="M191.35 346.914C186.587 346.948 181.871 346.768 177.221 346.383C256.788 338.63 318.701 271.262 318.111 189.768C317.52 108.26 254.614 41.7882 174.919 35.2117C179.58 34.7591 184.309 34.5113 189.089 34.4767C275.368 33.8521 345.819 103.283 346.444 189.564C347.068 275.845 277.629 346.289 191.35 346.914Z" fill="#e2bc50" fill-rule="evenodd" opacity="1" stroke="none"/>
</g>
</g>
</svg>
