<svg xmlns="http://www.w3.org/2000/svg" version="1.1" xmlns:xlink="http://www.w3.org/1999/xlink" x="0" y="0" viewBox="0 0 512 512" style="enable-background:new 0 0 512 512" xml:space="preserve" class=""><g><path d="M453.332
128h-26.664V64c0-35.285-28.715-64-64-64H149.332c-35.285 0-64 28.715-64 64v64H58.668C26.305 128 0 154.305 0 186.668v138.664C0
357.695 26.305 384 58.668 384h26.664v64c0 35.285 28.715 64 64 64h213.336c35.285 0 64-28.715 64-64v-64h26.664C485.695 384 512
357.695 512 325.332V186.668C512 154.305 485.695 128 453.332 128zM128 64c0-11.754 9.559-21.332 21.332-21.332h213.336C374.441
42.668 384 52.246 384 64v64H128zm256 384c0 2.668-.617 5.14-1.516 7.508l-71.765-82.024A15.976 15.976 0 0 0 298.668 368a15.913
15.913 0 0 0-12.035 5.484l-53.395 61.141-29.93-29.934c-5.996-5.992-16.62-5.992-22.636 0l-51.113
51.118c-.942-2.434-1.559-5.036-1.559-7.809V320h256zm0 0" opacity="1" class=""></path></g></svg>
