<svg stroke-miterlimit="10" style="fill-rule:nonzero;clip-rule:evenodd;stroke-linecap:round;stroke-linejoin:round;" version="1.1" viewBox="0 0 1225.65 849.31" xml:space="preserve" xmlns="http://www.w3.org/2000/svg">
    <g id="Слой-1">
        <g opacity="1">
            <path d="M658.601 59.3427C550.18 57.7667 460.683 144.699 459.107 253.12C457.531 361.541 544.464 451.038 652.885 452.614C761.305 454.19 850.802 367.257 852.378 258.836C853.954 150.416 767.021 60.9186 658.601 59.3427ZM658.389 73.9036C758.785 75.3629 839.276 158.23 837.817 258.625C836.358 359.019 753.491 439.512 653.096 438.053C552.702 436.593 472.209 353.726 473.668 253.332C475.127 152.937 557.993 72.4443 658.389 73.9036Z" fill="#78b856" fill-rule="nonzero" opacity="1" stroke="none"/>
            <path d="M658.389 73.9036C557.993 72.4443 475.127 152.937 473.668 253.332C472.209 353.726 552.702 436.593 653.096 438.053C753.491 439.512 836.358 359.019 837.817 258.625C839.276 158.23 758.785 75.3629 658.389 73.9036ZM658.137 91.2768C748.952 92.5968 821.764 167.558 820.444 258.372C819.124 349.187 744.164 422 653.349 420.679C562.533 419.359 489.721 344.398 491.041 253.584C492.361 162.77 567.321 89.9568 658.137 91.2768Z" fill="#282c34" fill-rule="nonzero" opacity="1" stroke="none"/>
            <path d="M867.95 228.184C869.268 238.288 869.904 248.609 869.751 259.089C869.599 269.57 868.662 279.868 867.053 289.928C882.225 288.031 894.114 275.167 894.342 259.446C894.571 243.732 883.061 230.519 867.95 228.184Z" fill="#ffffff" fill-rule="nonzero" opacity="1" stroke="none"/>
            <path d="M825.398 386.301C812.778 402.687 797.855 417.211 781.111 429.35C793.185 438.789 810.698 438.129 821.991 427.162C827.965 421.36 831.346 413.561 831.467 405.235C831.567 398.345 829.423 391.752 825.398 386.301Z" fill="#ffffff" fill-rule="nonzero" opacity="1" stroke="none"/>
            <path d="M621.793 467.288C621.888 468.043 622.145 468.746 622.292 469.483C625.115 483.568 637.347 494.361 652.275 494.578C667.99 494.806 681.193 483.296 683.536 468.186C673.434 469.503 663.112 470.139 652.632 469.987C648.348 469.924 644.108 469.646 639.89 469.333C633.791 468.879 627.74 468.239 621.793 467.288Z" fill="#ffffff" fill-rule="nonzero" opacity="1" stroke="none"/>
            <path d="M482.371 381.347C478.188 386.677 475.855 393.173 475.755 400.065C475.634 408.39 478.759 416.256 484.558 422.227C490.362 428.201 498.158 431.58 506.485 431.702C513.378 431.802 519.971 429.656 525.419 425.633C509.032 413.012 494.511 398.094 482.371 381.347Z" fill="#ffffff" fill-rule="nonzero" opacity="1" stroke="none"/>
            <path d="M444.433 222.028C429.263 223.924 417.371 236.797 417.143 252.51C416.914 268.228 428.427 281.434 443.535 283.772C442.219 273.669 441.583 263.346 441.734 252.867C441.886 242.387 442.823 232.088 444.433 222.028Z" fill="#ffffff" fill-rule="nonzero" opacity="1" stroke="none"/>
            <path d="M511.656 75.99C503.328 75.87 495.437 79.0219 489.463 84.8246C478.17 95.7956 477 113.284 486.088 125.624C498.708 109.238 513.66 94.7459 530.405 82.607C525.076 78.4241 518.546 76.0902 511.656 75.99Z" fill="#ffffff" fill-rule="nonzero" opacity="1" stroke="none"/>
            <path d="M659.211 17.3783C644.099 17.1587 631.415 27.8369 628.38 42.0891C628.259 42.6578 628.038 43.1908 627.949 43.7705C630.737 43.4075 633.579 43.2426 636.399 42.987C643.794 42.3166 651.267 41.8592 658.853 41.9695C669.334 42.1218 679.632 43.0586 689.692 44.668C687.797 29.4958 674.931 17.6068 659.211 17.3783Z" fill="#ffffff" fill-rule="nonzero" opacity="1" stroke="none"/>
            <path d="M805 80.2539C798.108 80.1537 791.516 82.2968 786.066 86.3231C802.454 98.9446 816.974 113.894 829.114 130.641C833.298 125.31 835.632 118.786 835.731 111.891C835.851 103.563 832.699 95.6721 826.896 89.6981C821.096 83.7282 813.326 80.3749 805 80.2539Z" fill="#ffffff" fill-rule="nonzero" opacity="1" stroke="none"/>
            <path d="M659.463 0.00518449C634.879-0.35215 614.48 17.804 610.98 41.4924C610.718 43.2657 610.311 44.9953 610.246 46.8261C608.584 47.1875 606.97 47.6666 605.322 48.0671C589.595 51.8898 574.505 57.3815 560.328 64.4774L561.613 64.2461C560.477 64.7882 559.242 65.207 558.06 65.6946C556.116 66.6974 554.245 67.8182 552.326 68.8616C549.997 70.1278 547.628 71.3293 545.364 72.6983C545.076 72.4127 544.731 72.2123 544.437 71.9348C535.588 63.5744 524.158 58.7949 511.908 58.6168C498.942 58.4294 486.662 63.3294 477.361 72.3662C458.383 90.8003 457.75 121.078 475.748 140.319C474.483 142.28 473.394 144.357 472.191 146.361C461.998 163.358 454.035 181.824 448.857 201.466C448.594 202.461 448.25 203.421 448.001 204.422C421.698 204.584 400.154 225.835 399.77 252.258C399.386 278.687 420.303 300.547 446.591 301.474C447.482 305.574 448.635 309.575 449.759 313.584C454.156 329.269 460.313 344.2 467.987 358.229C469.472 360.944 470.865 363.714 472.463 366.357C463.576 375.317 458.565 387.155 458.381 399.812C458.193 412.779 463.066 425.03 472.1 434.328C481.137 443.631 493.266 448.885 506.233 449.076C518.889 449.26 530.87 444.595 540.083 435.972C542.518 437.542 545.049 438.986 547.55 440.456C560.41 448.018 574.071 454.335 588.471 459.116C591.065 459.977 593.743 460.643 596.376 461.418C598.979 462.185 601.538 463.062 604.187 463.72C604.192 464.598 604.41 465.419 604.462 466.286C605.968 491.388 626.485 511.58 652.022 511.951C678.448 512.335 700.306 491.418 701.239 465.13C703.099 464.726 704.888 464.131 706.729 463.679C724.972 459.195 742.276 452.369 758.372 443.521C760.957 442.1 763.602 440.781 766.122 439.258C775.371 448.424 787.434 453.132 799.577 453.308C812.006 453.489 824.525 448.945 834.124 439.621C843.427 430.585 848.651 418.458 848.84 405.488C849.024 392.831 844.361 380.854 835.737 371.638C837.112 369.505 838.317 367.254 839.614 365.068C848.922 349.385 856.333 332.466 861.445 314.536C862.112 312.197 862.896 309.906 863.484 307.534C889.787 307.373 911.331 286.13 911.716 259.699C912.1 233.276 891.182 211.407 864.895 210.482C864.659 209.399 864.318 208.358 864.066 207.282C859.388 187.283 851.836 168.398 841.976 150.955C840.973 149.18 840.076 147.342 839.023 145.599C857.574 126.891 857.794 96.5806 839.355 77.5966C830.323 68.2964 818.218 63.0692 805.252 62.8807C803.246 62.8515 801.303 63.1464 799.339 63.3573C797.09 63.7571 794.819 64.0321 792.601 64.572C790.734 65.0477 788.839 65.4219 787.047 66.1164C781.319 68.3371 776.009 71.6713 771.402 75.9838C770.306 75.2769 769.134 74.6845 768.024 73.997C751.014 63.4602 732.432 55.2759 712.683 49.8152C710.877 49.3158 709.124 48.6895 707.299 48.2368C707.138 21.9326 685.894 0.389356 659.463 0.00518449ZM659.211 17.3783C674.931 17.6068 687.797 29.4958 689.692 44.668C679.632 43.0586 669.334 42.1218 658.853 41.9695C651.267 41.8592 643.794 42.3166 636.399 42.987C633.579 43.2426 630.737 43.4075 627.949 43.7705C628.038 43.1908 628.259 42.6578 628.38 42.0891C631.415 27.8369 644.099 17.1587 659.211 17.3783ZM658.601 59.3427C767.021 60.9186 853.954 150.416 852.378 258.836C850.802 367.257 761.305 454.19 652.885 452.614C544.464 451.038 457.531 361.541 459.107 253.12C460.683 144.699 550.18 57.7667 658.601 59.3427ZM511.656 75.99C518.546 76.0902 525.076 78.4241 530.405 82.607C513.66 94.7459 498.708 109.238 486.088 125.624C477 113.284 478.17 95.7956 489.463 84.8246C495.437 79.0219 503.328 75.87 511.656 75.99ZM805 80.2539C813.326 80.3749 821.096 83.7282 826.896 89.6981C832.699 95.6721 835.851 103.563 835.731 111.891C835.632 118.786 833.298 125.31 829.114 130.641C816.974 113.894 802.454 98.9446 786.066 86.3231C791.516 82.2968 798.108 80.1537 805 80.2539ZM444.433 222.028C442.823 232.088 441.886 242.387 441.734 252.867C441.583 263.346 442.219 273.669 443.535 283.772C428.427 281.434 416.914 268.228 417.143 252.51C417.371 236.797 429.263 223.924 444.433 222.028ZM867.95 228.184C883.061 230.519 894.571 243.732 894.342 259.446C894.114 275.167 882.225 288.031 867.053 289.928C868.662 279.868 869.599 269.57 869.751 259.089C869.904 248.609 869.268 238.288 867.95 228.184ZM825.398 386.301C829.423 391.752 831.567 398.345 831.467 405.235C831.346 413.561 827.965 421.36 821.991 427.162C810.698 438.129 793.185 438.789 781.111 429.35C797.855 417.211 812.778 402.687 825.398 386.301ZM482.371 381.347C494.511 398.094 509.032 413.012 525.419 425.633C519.971 429.656 513.378 431.802 506.485 431.702C498.158 431.58 490.362 428.201 484.558 422.227C478.759 416.256 475.634 408.39 475.755 400.065C475.855 393.173 478.188 386.677 482.371 381.347ZM621.793 467.288C627.74 468.239 633.791 468.879 639.89 469.333C644.108 469.646 648.348 469.924 652.632 469.987C663.112 470.139 673.434 469.503 683.536 468.186C681.193 483.296 667.99 494.806 652.275 494.578C637.347 494.361 625.115 483.568 622.292 469.483C622.145 468.746 621.888 468.043 621.793 467.288Z" fill="#282c34" fill-rule="nonzero" opacity="1" stroke="none"/>
        </g>
        <g opacity="1">
            <path d="M104.125 719.312L104.125 753.312L63.1254 753.312L63.1254 814.5L104.125 814.5L104.125 849.312L533.125 849.312L533.125 814.5L574.125 814.5L574.125 753.312L533.125 753.312L533.125 719.312L104.125 719.312Z" fill="#282c34" fill-rule="nonzero" opacity="1" stroke="none"/>
            <path d="M120.941 736.312L516.309 736.312L516.309 832.312L120.941 832.312L120.941 736.312Z" fill="#78b856" fill-rule="nonzero" opacity="1" stroke="none"/>
            <path d="M270.62 753.312L366.62 753.312L366.62 814.492L270.62 814.492L270.62 753.312Z" fill="#282c34" fill-rule="nonzero" opacity="1" stroke="none"/>
            <path d="M287.625 797.492L349.625 797.492L349.625 770.312L287.625 770.312L287.625 797.492Z" fill="#ffffff" fill-rule="nonzero" opacity="1" stroke="none"/>
            <path d="M430.625 753.312L511.625 753.312L511.625 814.492L430.625 814.492L430.625 753.312Z" fill="#282c34" fill-rule="nonzero" opacity="1" stroke="none"/>
            <path d="M447.63 797.492L494.63 797.492L494.63 770.312L447.63 770.312L447.63 797.492Z" fill="#ffffff" fill-rule="nonzero" opacity="1" stroke="none"/>
            <path d="M125.625 753.312L206.625 753.312L206.625 814.492L125.625 814.492L125.625 753.312Z" fill="#282c34" fill-rule="nonzero" opacity="1" stroke="none"/>
            <path d="M142.63 797.492L189.63 797.492L189.63 770.312L142.63 770.312L142.63 797.492Z" fill="#ffffff" fill-rule="nonzero" opacity="1" stroke="none"/>
            <path d="M532.125 797.492L557.125 797.492L557.125 770.312L532.125 770.312L532.125 797.492Z" fill="#ffffff" fill-rule="nonzero" opacity="1" stroke="none"/>
            <path d="M105.125 797.492L80.1254 797.492L80.1254 770.312L105.125 770.312L105.125 797.492Z" fill="#ffffff" fill-rule="nonzero" opacity="1" stroke="none"/>
        </g>
        <g opacity="1">
            <path d="M755.646 719.312L755.646 753.312L714.646 753.312L714.646 814.5L755.646 814.5L755.646 849.312L1184.65 849.312L1184.65 814.5L1225.65 814.5L1225.65 753.312L1184.65 753.312L1184.65 719.312L755.646 719.312Z" fill="#282c34" fill-rule="nonzero" opacity="1" stroke="none"/>
            <path d="M772.461 736.312L1167.83 736.312L1167.83 832.312L772.461 832.312L772.461 736.312Z" fill="#78b856" fill-rule="nonzero" opacity="1" stroke="none"/>
            <path d="M922.141 753.312L1018.14 753.312L1018.14 814.492L922.141 814.492L922.141 753.312Z" fill="#282c34" fill-rule="nonzero" opacity="1" stroke="none"/>
            <path d="M939.146 797.492L1001.15 797.492L1001.15 770.312L939.146 770.312L939.146 797.492Z" fill="#ffffff" fill-rule="nonzero" opacity="1" stroke="none"/>
            <path d="M1082.15 753.312L1163.15 753.312L1163.15 814.492L1082.15 814.492L1082.15 753.312Z" fill="#282c34" fill-rule="nonzero" opacity="1" stroke="none"/>
            <path d="M1099.15 797.492L1146.15 797.492L1146.15 770.312L1099.15 770.312L1099.15 797.492Z" fill="#ffffff" fill-rule="nonzero" opacity="1" stroke="none"/>
            <path d="M777.146 753.312L858.146 753.312L858.146 814.492L777.146 814.492L777.146 753.312Z" fill="#282c34" fill-rule="nonzero" opacity="1" stroke="none"/>
            <path d="M794.151 797.492L841.151 797.492L841.151 770.312L794.151 770.312L794.151 797.492Z" fill="#ffffff" fill-rule="nonzero" opacity="1" stroke="none"/>
            <path d="M1183.65 797.492L1208.65 797.492L1208.65 770.312L1183.65 770.312L1183.65 797.492Z" fill="#ffffff" fill-rule="nonzero" opacity="1" stroke="none"/>
            <path d="M756.646 797.492L731.646 797.492L731.646 770.312L756.646 770.312L756.646 797.492Z" fill="#ffffff" fill-rule="nonzero" opacity="1" stroke="none"/>
        </g>
        <g opacity="1">
            <path d="M570.467 750.023L592.672 775.771L561.623 802.547L601.583 848.884L632.632 822.107L655.367 848.471L980.245 568.3L957.51 541.937L988.559 515.161L948.599 468.824L917.55 495.6L895.345 469.853L570.467 750.023Z" fill="#282c34" fill-rule="nonzero" opacity="1" stroke="none"/>
            <path d="M592.611 748.952L892.02 490.747L954.715 563.447L655.307 821.652L592.611 748.952Z" fill="#78b856" fill-rule="nonzero" opacity="1" stroke="none"/>
            <path d="M717.064 664.074L789.764 601.379L829.72 647.71L757.02 710.405L717.064 664.074Z" fill="#282c34" fill-rule="nonzero" opacity="1" stroke="none"/>
            <path d="M758.795 686.426L805.747 645.935L787.997 625.352L741.044 665.843L758.795 686.426Z" fill="#ffffff" fill-rule="nonzero" opacity="1" stroke="none"/>
            <path d="M838.235 559.579L899.575 506.679L939.531 553.01L878.19 605.91L838.235 559.579Z" fill="#282c34" fill-rule="nonzero" opacity="1" stroke="none"/>
            <path d="M879.966 581.93L915.558 551.236L897.808 530.652L862.215 561.347L879.966 581.93Z" fill="#ffffff" fill-rule="nonzero" opacity="1" stroke="none"/>
            <path d="M607.261 758.767L668.602 705.868L708.557 752.199L647.216 805.098L607.261 758.767Z" fill="#282c34" fill-rule="nonzero" opacity="1" stroke="none"/>
            <path d="M648.992 781.119L684.584 750.424L666.834 729.841L631.241 760.536L648.992 781.119Z" fill="#ffffff" fill-rule="nonzero" opacity="1" stroke="none"/>
            <path d="M943.953 526.748L962.885 510.422L945.134 489.838L926.202 506.165L943.953 526.748Z" fill="#ffffff" fill-rule="nonzero" opacity="1" stroke="none"/>
            <path d="M620.589 805.612L601.657 821.939L583.907 801.356L602.839 785.029L620.589 805.612Z" fill="#ffffff" fill-rule="nonzero" opacity="1" stroke="none"/>
        </g>
        <g opacity="1">
            <path d="M762.99 440.692L750.467 472.302L712.349 457.201L689.812 514.087L727.93 529.188L715.108 561.553L1113.95 719.564L1126.77 687.199L1164.89 702.3L1187.42 645.414L1149.31 630.313L1161.83 598.703L762.99 440.692Z" fill="#282c34" fill-rule="nonzero" opacity="1" stroke="none"/>
            <path d="M772.362 462.691L1139.93 608.314L1104.57 697.565L737.003 551.942L772.362 462.691Z" fill="#78b856" fill-rule="nonzero" opacity="1" stroke="none"/>
            <path d="M905.257 533.626L994.508 568.985L971.974 625.864L882.723 590.505L905.257 533.626Z" fill="#282c34" fill-rule="nonzero" opacity="1" stroke="none"/>
            <path d="M904.794 580.964L962.435 603.8L972.446 578.531L914.805 555.694L904.794 580.964Z" fill="#ffffff" fill-rule="nonzero" opacity="1" stroke="none"/>
            <path d="M1054.01 592.56L1129.32 622.394L1106.78 679.273L1031.48 649.439L1054.01 592.56Z" fill="#282c34" fill-rule="nonzero" opacity="1" stroke="none"/>
            <path d="M1053.55 639.897L1097.25 657.208L1107.26 631.939L1063.56 614.628L1053.55 639.897Z" fill="#ffffff" fill-rule="nonzero" opacity="1" stroke="none"/>
            <path d="M770.455 480.221L845.761 510.055L823.227 566.934L747.921 537.1L770.455 480.221Z" fill="#282c34" fill-rule="nonzero" opacity="1" stroke="none"/>
            <path d="M769.992 527.559L813.688 544.87L823.699 519.601L780.003 502.289L769.992 527.559Z" fill="#ffffff" fill-rule="nonzero" opacity="1" stroke="none"/>
            <path d="M1132.1 671.019L1155.35 680.227L1165.36 654.958L1142.12 645.75L1132.1 671.019Z" fill="#ffffff" fill-rule="nonzero" opacity="1" stroke="none"/>
            <path d="M735.124 513.745L711.881 504.536L721.892 479.267L745.135 488.475L735.124 513.745Z" fill="#ffffff" fill-rule="nonzero" opacity="1" stroke="none"/>
        </g>
        <g opacity="1">
            <path d="M41 589.825L41 623.825L0 623.825L0 685.013L41 685.013L41 719.825L470 719.825L470 685.013L511 685.013L511 623.825L470 623.825L470 589.825L41 589.825Z" fill="#282c34" fill-rule="nonzero" opacity="1" stroke="none"/>
            <path d="M57.8159 606.825L453.183 606.825L453.183 702.825L57.8159 702.825L57.8159 606.825Z" fill="#78b856" fill-rule="nonzero" opacity="1" stroke="none"/>
            <path d="M207.495 623.825L303.495 623.825L303.495 685.005L207.495 685.005L207.495 623.825Z" fill="#282c34" fill-rule="nonzero" opacity="1" stroke="none"/>
            <path d="M224.5 668.005L286.5 668.005L286.5 640.825L224.5 640.825L224.5 668.005Z" fill="#ffffff" fill-rule="nonzero" opacity="1" stroke="none"/>
            <path d="M367.5 623.825L448.5 623.825L448.5 685.005L367.5 685.005L367.5 623.825Z" fill="#282c34" fill-rule="nonzero" opacity="1" stroke="none"/>
            <path d="M384.505 668.005L431.505 668.005L431.505 640.825L384.505 640.825L384.505 668.005Z" fill="#ffffff" fill-rule="nonzero" opacity="1" stroke="none"/>
            <path d="M62.5 623.825L143.5 623.825L143.5 685.005L62.5 685.005L62.5 623.825Z" fill="#282c34" fill-rule="nonzero" opacity="1" stroke="none"/>
            <path d="M79.505 668.005L126.505 668.005L126.505 640.825L79.505 640.825L79.505 668.005Z" fill="#ffffff" fill-rule="nonzero" opacity="1" stroke="none"/>
            <path d="M469 668.005L494 668.005L494 640.825L469 640.825L469 668.005Z" fill="#ffffff" fill-rule="nonzero" opacity="1" stroke="none"/>
            <path d="M42 668.005L17 668.005L17 640.825L42 640.825L42 668.005Z" fill="#ffffff" fill-rule="nonzero" opacity="1" stroke="none"/>
        </g>
        <g opacity="1">
            <path d="M266.467 451.608L261.376 485.224L220.839 479.085L211.677 539.583L252.214 545.722L247.002 580.142L671.165 644.379L676.378 609.959L716.915 616.098L726.078 555.601L685.54 549.462L690.631 515.845L266.467 451.608Z" fill="#282c34" fill-rule="nonzero" opacity="1" stroke="none"/>
            <path d="M281.695 467.721L672.605 526.922L658.23 621.839L267.32 562.638L281.695 467.721Z" fill="#78b856" fill-rule="nonzero" opacity="1" stroke="none"/>
            <path d="M427.141 506.942L522.059 521.316L512.898 581.807L417.98 567.432L427.141 506.942Z" fill="#282c34" fill-rule="nonzero" opacity="1" stroke="none"/>
            <path d="M437.339 553.17L498.64 562.453L502.71 535.58L441.409 526.296L437.339 553.17Z" fill="#ffffff" fill-rule="nonzero" opacity="1" stroke="none"/>
            <path d="M585.342 530.9L665.429 543.029L656.268 603.519L576.181 591.39L585.342 530.9Z" fill="#282c34" fill-rule="nonzero" opacity="1" stroke="none"/>
            <path d="M595.54 577.128L642.01 584.166L646.08 557.292L599.61 550.255L595.54 577.128Z" fill="#ffffff" fill-rule="nonzero" opacity="1" stroke="none"/>
            <path d="M283.781 485.23L363.868 497.359L354.707 557.849L274.62 545.721L283.781 485.23Z" fill="#282c34" fill-rule="nonzero" opacity="1" stroke="none"/>
            <path d="M293.979 531.459L340.449 538.496L344.519 511.623L298.048 504.585L293.979 531.459Z" fill="#ffffff" fill-rule="nonzero" opacity="1" stroke="none"/>
            <path d="M679.082 589.78L703.801 593.524L707.87 566.65L683.152 562.907L679.082 589.78Z" fill="#ffffff" fill-rule="nonzero" opacity="1" stroke="none"/>
            <path d="M256.896 525.843L232.178 522.099L236.248 495.226L260.966 498.969L256.896 525.843Z" fill="#ffffff" fill-rule="nonzero" opacity="1" stroke="none"/>
        </g>
    </g>
</svg>
