<svg height="100%" stroke-miterlimit="10" version="1.1" viewBox="0 0 256 256" width="100%" xml:space="preserve" xmlns="http://www.w3.org/2000/svg">
    <g id="Telegram">
        <g opacity="1">
            <path d="M22.2865 121.885C81.8027 95.9611 121.48 78.8685 141.319 70.6109C198.028 47.0308 209.798 42.9355 217.485 42.797C219.175 42.7696 222.939 43.1874 225.394 45.1745C227.436 46.849 228.01 49.1136 228.297 50.7019C228.552 52.2903 228.903 55.9104 228.616 58.7363C225.554 91.0142 212.254 169.342 205.492 205.495C202.653 220.793 197.008 225.922 191.554 226.422C179.689 227.513 170.694 218.589 159.212 211.064C141.255 199.285 131.113 191.956 113.666 180.464C93.5082 167.183 106.585 159.882 118.067 147.953C121.066 144.831 173.31 97.323 174.299 93.014C174.426 92.475 174.554 90.4656 173.342 89.4066C172.162 88.3445 170.407 88.7081 169.132 88.9952C167.314 89.4035 138.64 108.375 83.0147 145.906C74.8815 151.5 67.5137 154.227 60.8795 154.084C53.6075 153.927 39.5736 149.963 29.1439 146.575C16.3859 142.42 6.21133 140.222 7.10439 133.164C7.55092 129.489 12.6222 125.729 22.2865 121.885L22.2865 121.885Z" fill-rule="evenodd" opacity="1" stroke="none" />
        </g>
    </g>
</svg>